<?xml version="1.0" encoding="utf-8"?>
<!-- Generator: Adobe Illustrator 19.0.0, SVG Export Plug-In . SVG Version: 6.00 Build 0)  -->
<svg version="1.1" id="Layer_1" xmlns="http://www.w3.org/2000/svg" xmlns:xlink="http://www.w3.org/1999/xlink" x="0px" y="0px"
	 viewBox="0 0 60.6 48.3" style="enable-background:new 0 0 60.6 48.3;" xml:space="preserve">
<g>
	<path class="st0" d="M26.7,36.7c0,3.6-1.2,6.4-3.5,8.5c-2.3,2.1-5.3,3.1-8.8,3.1c-4.2,0-7.6-1.4-10.3-4.2C1.4,41.3,0,37.2,0,31.8
		c0-5.1,0.7-9.5,2.2-13.1c1.5-3.6,3.3-6.7,5.3-9.3c2.1-2.6,4.3-4.6,6.5-6.2C16.3,1.7,18.3,0.6,20,0l5.8,8.1c-3.4,1.7-6.2,4-8.2,6.9
		c-2.1,2.9-3.1,6.5-3.1,10.8c0.6-0.2,1.5-0.2,2.6-0.2c3.1,0,5.5,1.1,7.2,3.3C25.9,31,26.7,33.6,26.7,36.7z M60.6,36.7
		c0,3.6-1.2,6.4-3.5,8.5c-2.3,2.1-5.3,3.1-8.8,3.1c-4.2,0-7.6-1.4-10.3-4.2c-2.7-2.8-4.1-6.9-4.1-12.3c0-5.1,0.7-9.5,2.2-13.1
		c1.5-3.6,3.3-6.7,5.3-9.3c2.1-2.6,4.3-4.6,6.5-6.2c2.2-1.5,4.2-2.6,5.9-3.3l5.8,8.1c-3.4,1.7-6.2,4-8.2,6.9
		c-2.1,2.9-3.1,6.5-3.1,10.8c0.6-0.2,1.5-0.2,2.6-0.2c3.1,0,5.5,1.1,7.2,3.3C59.8,31,60.6,33.6,60.6,36.7z" fill="#ffe9cc"/>
</g>
</svg>
